<?xml version="1.0" encoding="utf-8"?>
<!-- Generator: Adobe Illustrator 16.0.0, SVG Export Plug-In . SVG Version: 6.00 Build 0)  -->
<!DOCTYPE svg PUBLIC "-//W3C//DTD SVG 1.1//EN" "http://www.w3.org/Graphics/SVG/1.1/DTD/svg11.dtd">
<svg version="1.1" id="圖層_1" xmlns="http://www.w3.org/2000/svg" xmlns:xlink="http://www.w3.org/1999/xlink" x="0px" y="0px"
	 width="777px" height="150px" viewBox="91.5 205 777 150" enable-background="new 91.5 205 777 150" xml:space="preserve">
<g>
	<path fill="#C61470" d="M652.99,205.295c-12.259,0-22.252,9.945-22.252,22.203v90.039h-41.746L575.7,304.885
		c26.043-2.904,40.417-23.531,40.417-48.49c0-26.978-20.676-48.884-46.915-48.884H470.45c-12.258,0-22.251,7.483-22.251,19.741
		V326.3l-55.875-106.285c-5.464-11.027-13.587-12.012-23.581-12.012h-25.304c-10.042,0-18.166,1.034-23.629,12.012L263.886,326.25
		v-98.999c0-12.258-9.944-22.251-22.251-22.251c-12.258,0-22.251,9.944-22.251,22.251v32.688h-83.049v-32.688
		c0-12.258-9.944-22.251-22.251-22.251c-12.258,0-22.202,9.944-22.202,22.251v105.498c0,12.257,9.944,22.251,22.202,22.251
		c12.258,0,22.251-9.944,22.251-22.251v-35.987h83.098v36.036c0,7.876,9.944,19.002,22.251,19.002
		c8.369,0,32.737-0.099,40.022-0.099c12.308,0,19.741-2.855,24.369-10.092l7.778-15.704h84.427l7.778,15.704
		c5.465,11.027,14.474,10.092,29.784,10.092h36.084c12.258,0,20.774-6.597,20.774-18.903v-87.874h64.245
		c8.023,0,14.521,6.498,14.521,14.522s-6.498,14.523-14.521,14.523c0,0-31.852,1.329-35.741,1.476
		c-3.446,0.099-6.892,1.477-9.5,4.086c-5.563,5.563-5.465,14.67,0.196,20.331c0.738,0.738,47.26,44.995,47.26,44.995
		s5.563,7.286,17.328,7.286h76.502c12.257,0,22.202-9.944,22.202-22.251V227.498C675.192,215.24,665.247,205.295,652.99,205.295
		 M329.016,295.187l26.337-53.216c0.197-0.394,0.394-0.837,0.64-1.33c0-0.049,0.049-0.098,0.049-0.098
		c0.098,0.147,0.147,0.344,0.246,0.492c0.197,0.345,0.345,0.689,0.492,0.984l26.337,53.217h-54.102V295.187z"/>
	<path fill="#C61470" d="M850.79,221.048c-8.172-7.384-21.61-14.178-71.479-14.178s-61.782,4.923-71.48,14.178
		c-9.697,9.255-17.328,20.43-17.328,58.927c0,38.448,6.744,49.918,17.328,58.926c10.585,8.96,21.611,14.179,71.48,14.179
		s63.062-6.351,71.479-14.179c8.813-8.171,17.329-20.43,17.329-58.926C868.119,241.478,859.062,228.482,850.79,221.048
		 M823.665,294.744c0,12.897-6.794,20.085-19.543,20.085h-49.524c-12.75,0-19.544-7.188-19.544-20.085v-29.587
		c0-12.898,6.794-20.134,19.544-20.134h49.524c12.749,0,19.543,7.187,19.543,20.134V294.744z"/>
</g>
</svg>
